<?xml version="1.0" standalone="no"?>
<svg xmlns="http://www.w3.org/2000/svg" width="639" height="478" viewBox="0 0 639 478">
    <defs>
        <linearGradient id="a" x1="0%" y1="49.998%" y2="49.998%">
            <stop offset="0%" stop-color="#DDE8F7"/>
            <stop offset="100%" stop-color="#F2F2F2"/>
        </linearGradient>
        <linearGradient id="b" x1="49.034%" x2="50.993%" y1="1.275%" y2="106.388%">
            <stop offset="1%" stop-color="#23C45D"/>
            <stop offset="86%" stop-color="#1B9E47"/>
        </linearGradient>
        <linearGradient id="c" x1="0%" y1="50%" y2="50%">
            <stop offset="0%" stop-color="#2B3582"/>
            <stop offset="100%" stop-color="#150E42"/>
        </linearGradient>
        <linearGradient id="d" x1="-.018%" x2="99.981%" y1="50%" y2="50%">
            <stop offset="0%" stop-color="#1B9E47"/>
            <stop offset="100%" stop-color="#23C45D"/>
        </linearGradient>
        <linearGradient id="e" x1="49.042%" x2="51.158%" y1="46.875%" y2="52.001%">
            <stop offset="1%" stop-color="#23C45D"/>
            <stop offset="86%" stop-color="#1B9E47"/>
        </linearGradient>
        <linearGradient id="f" x1="1.334%" x2="98.63%" y1="46.871%" y2="53.007%">
            <stop offset="1%" stop-color="#23C45D"/>
            <stop offset="86%" stop-color="#1B9E47"/>
        </linearGradient>
        <linearGradient id="g" x1="44.841%" x2="55.65%" y1="44.07%" y2="53.667%">
            <stop offset="1%" stop-color="#23C45D"/>
            <stop offset="86%" stop-color="#1B9E47"/>
        </linearGradient>
        <linearGradient id="h" x1="51.455%" x2="41.136%" y1="76.797%" y2="87.982%">
            <stop offset="1%" stop-color="#23C45D"/>
            <stop offset="86%" stop-color="#1B9E47"/>
        </linearGradient>
        <linearGradient id="i" x1="45.526%" x2="47.731%" y1="38.61%" y2="43.417%">
            <stop offset="1%" stop-color="#23C45D"/>
            <stop offset="86%" stop-color="#1B9E47"/>
        </linearGradient>
        <linearGradient id="j" x1="67.653%" x2="32.189%" y1="2.945%" y2="96.337%">
            <stop offset="0%" stop-color="#2B3582"/>
            <stop offset="100%" stop-color="#150E42"/>
        </linearGradient>
        <linearGradient id="k" x1="99.231%" x2="-164.25%" y1="103.79%" y2="-184.171%">
            <stop offset="0%" stop-color="#FDF53F"/>
            <stop offset="100%" stop-color="#D93C65"/>
        </linearGradient>
        <linearGradient id="l" x1="50.18%" x2="49.775%" y1="-.063%" y2="74.941%">
            <stop offset="0%" stop-color="#53D8FF"/>
            <stop offset="100%" stop-color="#3840F7"/>
        </linearGradient>
        <linearGradient id="m" x1="45.616%" x2="-17.376%" y1="51.545%" y2="76.026%">
            <stop offset="0%" stop-color="#53D8FF"/>
            <stop offset="100%" stop-color="#3840F7"/>
        </linearGradient>
        <linearGradient id="n" x1="41.603%" x2="-10.535%" y1="54.223%" y2="82.036%">
            <stop offset="0%" stop-color="#53D8FF"/>
            <stop offset="100%" stop-color="#3840F7"/>
        </linearGradient>
        <linearGradient id="o" x1="37.877%" x2="-13.327%" y1="55.966%" y2="82.465%">
            <stop offset="0%" stop-color="#53D8FF"/>
            <stop offset="100%" stop-color="#3840F7"/>
        </linearGradient>
        <linearGradient id="p" x1="33.186%" x2="-21.009%" y1="59.42%" y2="90.458%">
            <stop offset="0%" stop-color="#53D8FF"/>
            <stop offset="100%" stop-color="#3840F7"/>
        </linearGradient>
        <linearGradient id="q" x1="50.29%" x2="45.657%" y1="24.775%" y2="193.073%">
            <stop offset="0%" stop-color="#FDF53F"/>
            <stop offset="100%" stop-color="#D93C65"/>
        </linearGradient>
        <linearGradient id="r" x1="49.885%" x2="50.961%" y1="30.361%" y2="221.885%">
            <stop offset="0%" stop-color="#FDF53F"/>
            <stop offset="100%" stop-color="#D93C65"/>
        </linearGradient>
        <linearGradient id="s" x1="49.886%" x2="50.962%" y1="30.66%" y2="222.13%">
            <stop offset="0%" stop-color="#FDF53F"/>
            <stop offset="100%" stop-color="#D93C65"/>
        </linearGradient>
        <linearGradient id="t" x1="46.114%" x2="53.885%" y1="45.682%" y2="54.311%">
            <stop offset="0%" stop-color="#2B3582"/>
            <stop offset="100%" stop-color="#150E42"/>
        </linearGradient>
        <linearGradient id="u" x1="1.639%" x2="98.72%" y1="48.699%" y2="51.439%">
            <stop offset="0%" stop-color="#2B3582"/>
            <stop offset="100%" stop-color="#150E42"/>
        </linearGradient>
        <linearGradient id="v" x1="49.552%" x2="56.876%" y1="52.101%" y2="15.128%">
            <stop offset="0%" stop-color="#53D8FF"/>
            <stop offset="100%" stop-color="#3840F7"/>
        </linearGradient>
        <linearGradient id="w" x1="322.892%" x2="-34.847%" y1="-23.422%" y2="72.91%">
            <stop offset="0%" stop-color="#53D8FF"/>
            <stop offset="100%" stop-color="#3840F7"/>
        </linearGradient>
        <linearGradient id="x" x1="249.221%" x2="-107.953%" y1="-8.415%" y2="96.446%">
            <stop offset="0%" stop-color="#53D8FF"/>
            <stop offset="100%" stop-color="#3840F7"/>
        </linearGradient>
        <linearGradient id="y" x1="175.741%" x2="-180.744%" y1="15.225%" y2="114.016%">
            <stop offset="0%" stop-color="#53D8FF"/>
            <stop offset="100%" stop-color="#3840F7"/>
        </linearGradient>
        <linearGradient id="z" x1="349.727%" x2="-7.469%" y1="-31.236%" y2="65.656%">
            <stop offset="0%" stop-color="#53D8FF"/>
            <stop offset="100%" stop-color="#3840F7"/>
        </linearGradient>
        <linearGradient id="A" x1="276.23%" x2="-80.526%" y1="-11.712%" y2="85.717%">
            <stop offset="0%" stop-color="#53D8FF"/>
            <stop offset="100%" stop-color="#3840F7"/>
        </linearGradient>
        <linearGradient id="B" x1="202.801%" x2="-153.291%" y1="7.425%" y2="106.839%">
            <stop offset="0%" stop-color="#53D8FF"/>
            <stop offset="100%" stop-color="#3840F7"/>
        </linearGradient>
        <linearGradient id="C" x1="376.565%" x2="19.834%" y1="-38.381%" y2="58.161%">
            <stop offset="0%" stop-color="#53D8FF"/>
            <stop offset="100%" stop-color="#3840F7"/>
        </linearGradient>
        <linearGradient id="D" x1="303.058%" x2="-53.129%" y1="-18.952%" y2="78.095%">
            <stop offset="0%" stop-color="#53D8FF"/>
            <stop offset="100%" stop-color="#3840F7"/>
        </linearGradient>
        <linearGradient id="E" x1="228.542%" x2="-123.834%" y1="1.496%" y2="97.49%">
            <stop offset="0%" stop-color="#53D8FF"/>
            <stop offset="100%" stop-color="#3840F7"/>
        </linearGradient>
        <linearGradient id="F" x1="49.188%" x2="51.437%" y1="95.396%" y2="-30.313%">
            <stop offset="0%" stop-color="#53D8FF"/>
            <stop offset="100%" stop-color="#3840F7"/>
        </linearGradient>
        <linearGradient id="G" x1="50.974%" x2="75.659%" y1="49.627%" y2="28.644%">
            <stop offset="0%" stop-color="#53D8FF"/>
            <stop offset="100%" stop-color="#3840F7"/>
        </linearGradient>
        <linearGradient id="H" x1="34.046%" x2="53.667%" y1="81.846%" y2="42.667%">
            <stop offset="0%" stop-color="#9CFFFB"/>
            <stop offset="100%" stop-color="#9BFFFA"/>
        </linearGradient>
        <linearGradient id="I" x1=".054%" y1="50.018%" y2="50.018%">
            <stop offset="0%" stop-color="#F9B776"/>
            <stop offset="100%" stop-color="#F47960"/>
        </linearGradient>
        <linearGradient id="J" x1="53.158%" x2="32.743%" y1="4.83%" y2="297.09%">
            <stop offset="0%" stop-color="#2B3582"/>
            <stop offset="100%" stop-color="#150E42"/>
        </linearGradient>
        <linearGradient id="K" x1="0%" y1="49.986%" y2="49.986%">
            <stop offset="0%" stop-color="#F9B776"/>
            <stop offset="100%" stop-color="#F47960"/>
        </linearGradient>
        <linearGradient id="L" x1="20.678%" x2="64.79%" y1="20.409%" y2="64.912%">
            <stop offset="0%" stop-color="#53D8FF"/>
            <stop offset="100%" stop-color="#3840F7"/>
        </linearGradient>
        <linearGradient id="M" x1="55.395%" x2="39.486%" y1="27.601%" y2="98.671%">
            <stop offset="0%" stop-color="#2B3582"/>
            <stop offset="100%" stop-color="#150E42"/>
        </linearGradient>
        <linearGradient id="N" x1="28.096%" x2="90.221%" y1="21.388%" y2="147.471%">
            <stop offset="0%" stop-color="#FDF53F"/>
            <stop offset="100%" stop-color="#D93C65"/>
        </linearGradient>
        <linearGradient id="O" x1="70.548%" x2="47.501%" y1="188.514%" y2="32.647%">
            <stop offset="0%" stop-color="#F9B776"/>
            <stop offset="100%" stop-color="#F47960"/>
        </linearGradient>
        <linearGradient id="P" x1="19.144%" x2="119.626%" y1="30.015%" y2="109.223%">
            <stop offset="0%" stop-color="#F9B776"/>
            <stop offset="100%" stop-color="#F47960"/>
        </linearGradient>
        <linearGradient id="Q" x1="136.815%" x2="15.8%" y1="-70.401%" y2="92.238%">
            <stop offset="0%" stop-color="#2B3582"/>
            <stop offset="100%" stop-color="#150E42"/>
        </linearGradient>
        <linearGradient id="R" x1="-109.976%" x2="172.518%" y1="-89.805%" y2="165.178%">
            <stop offset="0%" stop-color="#F9B776"/>
            <stop offset="100%" stop-color="#F47960"/>
        </linearGradient>
        <linearGradient id="S" x1="108.841%" x2="11.027%" y1="-19.788%" y2="93.025%">
            <stop offset="0%" stop-color="#2B3582"/>
            <stop offset="100%" stop-color="#150E42"/>
        </linearGradient>
        <linearGradient id="T" x1="62.299%" x2="162.313%" y1="49.857%" y2="49.857%">
            <stop offset="0%" stop-color="#F9B776"/>
            <stop offset="100%" stop-color="#F47960"/>
        </linearGradient>
        <linearGradient id="U" x1="111.477%" x2="38.859%" y1="47.99%" y2="50.365%">
            <stop offset="0%" stop-color="#2B3582"/>
            <stop offset="100%" stop-color="#150E42"/>
        </linearGradient>
        <linearGradient id="V" x1="73.333%" x2="33.298%" y1="35.303%" y2="62.054%">
            <stop offset="0%" stop-color="#2B3582"/>
            <stop offset="100%" stop-color="#150E42"/>
        </linearGradient>
        <linearGradient id="W" x1="81.739%" x2="7.255%" y1="-30.444%" y2="158.218%">
            <stop offset="0%" stop-color="#53D8FF"/>
            <stop offset="100%" stop-color="#3840F7"/>
        </linearGradient>
        <linearGradient id="X" x1="33.64%" x2="169.679%" y1="42.043%" y2="99.757%">
            <stop offset="0%" stop-color="#2B3582"/>
            <stop offset="100%" stop-color="#150E42"/>
        </linearGradient>
        <linearGradient id="Y" x1="167.805%" x2="-148.875%" y1="75.609%" y2="-.08%">
            <stop offset="0%" stop-color="#FDF53F"/>
            <stop offset="66%" stop-color="#E57A58"/>
            <stop offset="100%" stop-color="#D93C65"/>
        </linearGradient>
        <linearGradient id="Z" x1="38.729%" x2="104.53%" y1="44.005%" y2="102.66%">
            <stop offset="0%" stop-color="#2B3582"/>
            <stop offset="100%" stop-color="#150E42"/>
        </linearGradient>
        <linearGradient id="aa" x1="172.189%" x2="-70.911%" y1="96.208%" y2="-4.287%">
            <stop offset="0%" stop-color="#FDF53F"/>
            <stop offset="66%" stop-color="#E57A58"/>
            <stop offset="100%" stop-color="#D93C65"/>
        </linearGradient>
        <linearGradient id="ab" x1="48.046%" x2="74.452%" y1="65.035%" y2="-12.161%">
            <stop offset="0%" stop-color="#1B9E47"/>
            <stop offset="100%" stop-color="#23C45D"/>
        </linearGradient>
        <linearGradient id="ac" x1="89.915%" x2="30.589%" y1="16.162%" y2="69.165%">
            <stop offset="0%" stop-color="#1B9E47"/>
            <stop offset="100%" stop-color="#23C45D"/>
        </linearGradient>
        <linearGradient id="ad" x1="72.163%" x2="27.017%" y1="32.979%" y2="73.619%">
            <stop offset="0%" stop-color="#F9B776"/>
            <stop offset="100%" stop-color="#F47960"/>
        </linearGradient>
        <linearGradient id="ae" x1="37.759%" x2="76.209%" y1="-22.544%" y2="149.753%">
            <stop offset="0%" stop-color="#53D8FF"/>
            <stop offset="100%" stop-color="#3840F7"/>
        </linearGradient>
        <linearGradient id="af" x1="46.052%" x2="115.792%" y1="55.23%" y2="16.181%">
            <stop offset="0%" stop-color="#F9B776"/>
            <stop offset="100%" stop-color="#F47960"/>
        </linearGradient>
        <linearGradient id="ag" x1="44.869%" x2="54.626%" y1="106.362%" y2="9.984%">
            <stop offset="0%" stop-color="#F9B776"/>
            <stop offset="100%" stop-color="#F47960"/>
        </linearGradient>
        <linearGradient id="ah" x1="0%" x2="99.971%" y1="49.99%" y2="49.99%">
            <stop offset="0%" stop-color="#2B3582"/>
            <stop offset="100%" stop-color="#150E42"/>
        </linearGradient>
        <linearGradient id="ai" x1="138.188%" x2="-79.361%" y1="-76.217%" y2="235.246%">
            <stop offset="0%" stop-color="#FDF53F"/>
            <stop offset="100%" stop-color="#D93C65"/>
        </linearGradient>
        <linearGradient id="aj" x1="102.06%" x2="27.915%" y1="48.085%" y2="50.814%">
            <stop offset="0%" stop-color="#2B3582"/>
            <stop offset="100%" stop-color="#150E42"/>
        </linearGradient>
        <linearGradient id="ak" x1="49.987%" x2="32.276%" y1="50.075%" y2="169.151%">
            <stop offset="0%" stop-color="#53D8FF"/>
            <stop offset="100%" stop-color="#3840F7"/>
        </linearGradient>
        <linearGradient id="al" x1="52.597%" x2="49.896%" y1="214.462%" y2="43.322%">
            <stop offset="0%" stop-color="#53D8FF"/>
            <stop offset="100%" stop-color="#3840F7"/>
        </linearGradient>
        <linearGradient id="am" x1="51.628%" x2="48.46%" y1="111.905%" y2="-14.692%">
            <stop offset="0%" stop-color="#53D8FF"/>
            <stop offset="100%" stop-color="#3840F7"/>
        </linearGradient>
        <linearGradient id="an" x1="71.782%" x2="-26.576%" y1="44.737%" y2="62.836%">
            <stop offset="0%" stop-color="#F9B776"/>
            <stop offset="100%" stop-color="#F47960"/>
        </linearGradient>
        <linearGradient id="ao" x1="43.949%" x2="60.798%" y1="26.011%" y2="93.055%">
            <stop offset="0%" stop-color="#2B3582"/>
            <stop offset="100%" stop-color="#150E42"/>
        </linearGradient>
        <linearGradient id="ap" x1="122.204%" x2="-27.972%" y1="22.76%" y2="78.913%">
            <stop offset="0%" stop-color="#F9B776"/>
            <stop offset="100%" stop-color="#F47960"/>
        </linearGradient>
        <linearGradient id="aq" x1="52.757%" x2="46.545%" y1="29.593%" y2="108.236%">
            <stop offset="0%" stop-color="#9CFFFB"/>
            <stop offset="100%" stop-color="#9BFFFA"/>
        </linearGradient>
        <linearGradient id="ar" x1="53.501%" x2="49.152%" y1="63.131%" y2="144.336%">
            <stop offset="0%" stop-color="#9CFFFB"/>
            <stop offset="100%" stop-color="#9BFFFA"/>
        </linearGradient>
        <linearGradient id="as" x1="56.572%" x2="50.087%" y1="19.259%" y2="107.653%">
            <stop offset="0%" stop-color="#9CFFFB"/>
            <stop offset="100%" stop-color="#9BFFFA"/>
        </linearGradient>
        <linearGradient id="at" x1="21.098%" x2="47.849%" y1="131.447%" y2="32.131%">
            <stop offset="0%" stop-color="#2B3582"/>
            <stop offset="100%" stop-color="#150E42"/>
        </linearGradient>
    </defs>
    <g fill="none" fill-rule="nonzero">
        <path fill="url(#a)" d="M631.931 459.315l-21.081-7.324c-4.642-1.612-7.253-3.555-7.478-5.565-.397-3.554-7.495-6.832-18.995-8.772l-13.313-2.245c-11.765-1.983-25.352-3.123-39.373-3.301l-78.009-.994c-14.117-.18-27.735 1.374-36.753 4.193l-17.982 5.616c-4.424 1.382-10.012 2.485-16.335 3.221l-29.648 3.454c-17.56 2.046-28.629 6.633-28.042 11.619l.39 3.303 2.791 5.017c2.328 4.19 14.58 7.549 30.6 8.386l23.745 1.24a550.6 550.6 0 0 0 38.046.655l185.417-3.185c18.6-.318 33.066-4.316 33.089-9.145v-.697c-.021-1.975-2.5-3.895-7.069-5.476z" opacity=".26"/>
        <path fill="#FFF" d="M518.547 144.157s12.47-20.705-10.15-14.943c-22.62 5.763-35.072 1.278-50.433-9.532-15.362-10.81-19.266-12.521-31.77-10.087-12.503 2.434-31.39-13.844-22.49-20.533 8.901-6.69 26.813-7.494 36.799-.281 9.986 7.212 22.143 1.469 41.435 2.42 19.292.953 30.004 4.473 33.574 13.52 3.57 9.046 7.141-3.195 14.642 13.588 0 0 15.538 6.114 10.719 17.454-4.82 11.34-5.886 18.137-5.886 18.137h-17.676l1.236-9.743z" opacity=".77"/>
        <path fill="url(#b)" d="M540 269.1h-28.8v-19.338l2.059-56.594.154-4.305.182-5.028.148-4.306.975-26.64.034-.789h24.703v41.068z"/>
        <rect width="32.4" height="5.4" x="511.2" y="149.4" fill="url(#c)" rx="1.256"/>
        <path fill="#FFF" d="M540 180v4.5h-25.2l.15-4.5zM538.2 189v4.5H513l.155-4.5z" opacity=".4"/>
        <path fill="url(#d)" d="M436.13 199.643a4.945 4.945 0 0 0-5.95.559l-110.136 71.12c-1.15 1.061-6.428 2.536-6.27 4.09L302.4 401.892c.173 1.701 82.571 1.743 247.195.125a4.875 4.875 0 0 0 3.438-1.482 4.855 4.855 0 0 0 1.367-3.477V275.534a4.836 4.836 0 0 0-2.263-4.211l-116.008-71.68z"/>
        <path fill="#FFF" d="M407.88 280.8h-9.374a1.545 1.545 0 0 0-1.158.482 1.63 1.63 0 0 0-.446 1.198l1.14 29.166c.035.879.747 1.569 1.604 1.553h9.142c.433.012.851-.16 1.156-.476.305-.315.47-.746.455-1.19l-.908-29.172c-.035-.883-.75-1.576-1.611-1.56zM367.38 280.8h-9.374a1.545 1.545 0 0 0-1.158.482 1.63 1.63 0 0 0-.446 1.198l1.14 29.166c.035.879.747 1.569 1.604 1.553h9.142c.433.012.851-.16 1.156-.476.305-.315.47-.746.455-1.19l-.908-29.172c-.035-.883-.75-1.576-1.611-1.56zM449.275 280.8h-8.598c-.391-.009-.77.158-1.051.463-.278.31-.431.732-.426 1.17l.367 29.173c.006.43.164.84.44 1.138a1.37 1.37 0 0 0 1.03.456h8.392c.39.007.766-.16 1.045-.463.277-.305.431-.723.426-1.157l-.154-29.173a1.719 1.719 0 0 0-.436-1.146 1.37 1.37 0 0 0-1.035-.46zM485.433 280.8h-8.537a1.356 1.356 0 0 0-1.028.46c-.274.303-.43.715-.433 1.147L475.2 311.6c-.006.431.147.846.423 1.144.278.302.652.467 1.038.457h8.332c.381.007.75-.157 1.023-.456.274-.299.432-.708.438-1.138l.446-29.192a1.702 1.702 0 0 0-.423-1.157 1.37 1.37 0 0 0-1.044-.456zM521.576 281.283a1.569 1.569 0 0 0-1.161-.483h-9.391c-.863-.011-1.579.683-1.613 1.566l-.91 29.195c-.011.438.154.86.458 1.17.307.31.724.48 1.155.469h9.158c.86.011 1.572-.68 1.607-1.56l1.117-29.155c.032-.443-.12-.88-.42-1.202z" opacity=".5"/>
        <path fill="url(#e)" d="M135 347.093l2.92-129.293h7.88v132.3zM82.8 387.593L85.72 258.3h7.88v132.3z"/>
        <path fill="url(#f)" d="M140.4 349.65c0 1.793-.96 3.15-2.149 3.15h-13.696c-1.188 0-2.155-1.357-2.155-3.15s.967-3.15 2.155-3.15h13.69c1.188 0 2.149 1.357 2.149 3.15h.006z"/>
        <path fill="url(#g)" d="M180.848 152.972c-1.504-7.547-26.246 36.072-34.461 46.796-8.215 10.723-1.807 14.104-1.807 14.104l1.071 1.035c3.195.742 6.495-.7 8.176-3.572 7.59-13.802 28.247-52.207 27.02-58.363zM129.548 194.372c-1.504-7.547-26.246 36.072-34.461 46.796-8.215 10.723-1.807 14.104-1.807 14.104l1.071 1.035c3.195.742 6.495-.7 8.176-3.572 7.59-13.802 28.247-52.207 27.02-58.363z"/>
        <path fill="url(#h)" d="M180.559 285.214c7.056 2.257-18.046-40.636-23.218-53.088-5.172-12.452-10.938-8.24-10.938-8.24l-1.303.557c-2.275 2.397-2.652 6.106-.91 8.943 8.055 13.344 30.609 49.998 36.369 51.828zM128.359 325.714c7.056 2.257-18.046-40.636-23.218-53.088-5.172-12.452-10.938-8.24-10.938-8.24l-1.303.557c-2.275 2.397-2.652 6.106-.91 8.943 8.055 13.344 30.609 49.998 36.369 51.828z"/>
        <path fill="url(#i)" d="M68.065 231.118c-6.352-4.211 42.658-11.85 55.499-15.77 12.84-3.918 13.126 3.449 13.126 3.449l.11 1.412c-.084 3.354-2.575 6.129-5.834 6.499-15.414 2.201-57.709 7.844-62.9 4.41zM14.965 271.618c-6.352-4.211 42.658-11.85 55.499-15.77 12.84-3.918 13.126 3.449 13.126 3.449l.11 1.412c-.084 3.354-2.575 6.129-5.834 6.499-15.414 2.201-57.709 7.844-62.9 4.41z"/>
        <ellipse cx="142.644" cy="218.347" fill="url(#j)" rx="7.734" ry="7.727" transform="rotate(-78.6 142.644 218.347)"/>
        <ellipse cx="90.449" cy="259.31" fill="url(#j)" rx="7.734" ry="7.727" transform="rotate(-78.6 90.449 259.31)"/>
        <path fill="#FFF" d="M142.225 224.1a5.406 5.406 0 0 1-5.078-7.305 5.4 5.4 0 1 1 5.052 7.305h.026zm0-10.162a4.776 4.776 0 0 0-4.46 3.083 4.756 4.756 0 1 0 8.901 3.353 4.762 4.762 0 0 0-4.441-6.436zM90.925 264.6a5.406 5.406 0 0 1-5.078-7.305 5.4 5.4 0 1 1 5.052 7.305h.026zm0-10.162a4.776 4.776 0 0 0-4.46 3.083 4.756 4.756 0 1 0 8.901 3.353 4.762 4.762 0 0 0-4.441-6.436z"/>
        <ellipse cx="188.981" cy="49.445" fill="url(#k)" rx="39.289" ry="39.254" transform="rotate(-80.78 188.98 49.445)"/>
        <path fill="#FFF" d="M228.792 77.4a.15.15 0 0 1-.107-.052c-.087-.089-.111-.267-.054-.4.177-.4.35-.806.514-1.211.036-.088.101-.14.17-.137.068.004.13.062.162.154a.422.422 0 0 1-.006.29c-.169.411-.341.817-.521 1.223-.034.083-.093.133-.158.133z"/>
        <path fill="#CBD5E2" d="M190.096 98.1a.335.335 0 0 1-.326-.324.333.333 0 0 1 .09-.236c.06-.064.143-.1.23-.102 1.098 0 2.202-.093 3.268-.198.176-.009.33.12.353.297a.334.334 0 0 1-.072.245.326.326 0 0 1-.222.12 46.846 46.846 0 0 1-3.34.198h.02zm-3.32-.033a51.363 51.363 0 0 1-3.333-.265.33.33 0 0 1-.287-.364.325.325 0 0 1 .118-.223.317.317 0 0 1 .241-.068c1.091.12 2.196.212 3.268.258.18 0 .327.148.327.331 0 .183-.147.33-.327.33h-.007zm9.928-.59a.33.33 0 0 1-.353-.304.33.33 0 0 1 .3-.357c1.08-.172 2.17-.39 3.268-.662a.34.34 0 0 1 .15.662 57.136 57.136 0 0 1-3.267.662h-.098zm-16.516-.158h-.058a46.461 46.461 0 0 1-3.268-.721.314.314 0 0 1-.203-.147.321.321 0 0 1-.033-.25.324.324 0 0 1 .147-.203.317.317 0 0 1 .246-.036 45.9 45.9 0 0 0 3.222.702.326.326 0 0 1 .215.138c.05.073.07.164.053.252a.334.334 0 0 1-.32.265zm22.98-1.377a.314.314 0 0 1-.314-.231.332.332 0 0 1 .216-.41c1.045-.332 2.098-.662 3.117-1.1.17-.065.36.02.425.193a.334.334 0 0 1-.19.43c-1.039.404-2.097.774-3.163 1.105a.233.233 0 0 1-.091.013zm-29.41-.271a.258.258 0 0 1-.099 0 44.625 44.625 0 0 1-3.137-1.158.333.333 0 0 1-.082-.568.324.324 0 0 1 .324-.048c1.02.417 2.059.801 3.098 1.145.18.03.303.201.274.384a.331.331 0 0 1-.379.278v-.033zm35.605-2.144a.314.314 0 0 1-.294-.192.328.328 0 0 1 .157-.437c.994-.47 1.96-.98 2.941-1.516a.323.323 0 0 1 .348-.02.332.332 0 0 1-.034.596 45.34 45.34 0 0 1-2.98 1.542.336.336 0 0 1-.144.027h.006zm-41.75-.378a.349.349 0 0 1-.143 0c-1-.49-1.96-1.026-2.954-1.582a.34.34 0 0 1-.118-.456.317.317 0 0 1 .444-.12c.948.55 1.961 1.08 2.916 1.563a.332.332 0 0 1-.144.628v-.033zm47.56-2.879a.313.313 0 0 1-.274-.152.328.328 0 0 1 .098-.457 46.626 46.626 0 0 0 2.706-1.906.324.324 0 0 1 .457.066.34.34 0 0 1-.065.464 60.499 60.499 0 0 1-2.745 1.932.304.304 0 0 1-.183.053h.007zm-53.31-.47a.31.31 0 0 1-.184-.053 46.698 46.698 0 0 1-2.705-1.985.334.334 0 0 1-.044-.451c.106-.139.3-.17.442-.072a68.015 68.015 0 0 0 2.673 1.952.334.334 0 0 1-.19.61h.007zm58.63-3.554a.327.327 0 0 1-.309-.215.334.334 0 0 1 .094-.367 52.468 52.468 0 0 0 2.431-2.257.318.318 0 0 1 .458 0 .333.333 0 0 1 0 .47 54.12 54.12 0 0 1-2.464 2.283.318.318 0 0 1-.216.086h.007zm-63.872-.562a.35.35 0 0 1-.216-.08 50.521 50.521 0 0 1-2.411-2.336.333.333 0 0 1 .14-.572.324.324 0 0 1 .324.109 46.31 46.31 0 0 0 2.385 2.303.34.34 0 0 1-.229.576h.007zm68.624-4.144a.312.312 0 0 1-.216-.086.333.333 0 0 1 0-.47 48.974 48.974 0 0 0 2.098-2.568.324.324 0 0 1 .446-.043.334.334 0 0 1 .07.447 41.881 41.881 0 0 1-2.123 2.608.337.337 0 0 1-.308.112h.033zm-73.2-.661a.312.312 0 0 1-.247-.113 54.386 54.386 0 0 1-1.36-1.681c-.242-.324-.483-.662-.719-.966a.334.334 0 0 1 .066-.464c.144-.11.349-.08.457.066.235.325.47.662.712.954.432.562.883 1.118 1.308 1.66a.34.34 0 0 1-.04.47.311.311 0 0 1-.241.074h.065zm-3.953-5.395a.313.313 0 0 1-.275-.152 51.875 51.875 0 0 1-1.712-2.905.34.34 0 0 1 .13-.45.323.323 0 0 1 .445.132 46.817 46.817 0 0 0 1.686 2.866.333.333 0 0 1-.098.456.304.304 0 0 1-.241.053h.065zm-3.196-5.89a.326.326 0 0 1-.3-.192 56.824 56.824 0 0 1-1.308-3.117.328.328 0 0 1 .19-.424.325.325 0 0 1 .418.185c.392 1.04.823 2.072 1.307 3.078a.335.335 0 0 1-.372.47h.065zm-2.412-6.274a.32.32 0 0 1-.313-.239 49.989 49.989 0 0 1-.863-3.27.335.335 0 1 1 .654-.146c.248 1.08.535 2.165.856 3.224a.335.335 0 0 1-.025.256.328.328 0 0 1-.198.161l-.11.014z"/>
        <path fill="#FFF" d="M140.968 58.5c-.163.001-.303-.092-.326-.218-.093-.43-.167-.86-.24-1.29-.02-.142.11-.271.293-.29a.396.396 0 0 1 .246.054c.069.043.112.106.12.174.074.425.147.85.234 1.275a.211.211 0 0 1-.056.192.35.35 0 0 1-.217.103h-.054zM150.477 19.8c-.038.001-.075-.02-.105-.06-.078-.098-.095-.282-.04-.416.177-.4.354-.798.544-1.191.037-.094.102-.144.169-.13.066.013.122.088.144.193a.459.459 0 0 1-.037.306c-.184.387-.353.774-.533 1.19-.035.07-.087.11-.142.108z"/>
        <path fill="#CBD5E2" d="M235.425 39.6a.317.317 0 0 1-.318-.269c-.189-1.037-.422-2.08-.65-3.105a.334.334 0 0 1 .65-.154c.266 1.037.5 2.094.688 3.15a.32.32 0 0 1-.26.372l-.11.006zm-1.584-6.204a.318.318 0 0 1-.305-.224 45.823 45.823 0 0 0-1.104-2.984.32.32 0 0 1 .179-.42.328.328 0 0 1 .425.177 51.42 51.42 0 0 1 1.116 3.028.32.32 0 0 1-.207.404l-.104.019zm-2.422-5.935a.325.325 0 0 1-.292-.18c-.46-.954-.967-1.92-1.5-2.817a.318.318 0 0 1 .133-.42.327.327 0 0 1 .433.107c.538.928 1.051 1.92 1.519 2.849a.316.316 0 0 1-.15.429.355.355 0 0 1-.136.032h-.007zm-3.206-5.558a.332.332 0 0 1-.273-.14 36.251 36.251 0 0 0-1.87-2.562.317.317 0 0 1 .065-.448.334.334 0 0 1 .455.058 49.92 49.92 0 0 1 1.889 2.625.317.317 0 0 1-.091.448.349.349 0 0 1-.169.02h-.006zm-3.934-5.083a.32.32 0 0 1-.247-.116 49.922 49.922 0 0 0-2.2-2.317.323.323 0 1 1 .46-.455 45.32 45.32 0 0 1 2.227 2.356.312.312 0 0 1 0 .448.36.36 0 0 1-.234.084h-.006zm-71.869-.73a.334.334 0 0 1-.214-.084.318.318 0 0 1 0-.454c.727-.788 1.5-1.569 2.279-2.305a.327.327 0 0 1 .556.224.312.312 0 0 1-.096.224 53.494 53.494 0 0 0-2.252 2.273.313.313 0 0 1-.273.122zm67.292-3.797a.327.327 0 0 1-.214-.077 46.747 46.747 0 0 0-2.5-2.01.32.32 0 0 1-.061-.452.33.33 0 0 1 .458-.06c.863.64 1.713 1.331 2.531 2.036a.323.323 0 0 1 0 .454.326.326 0 0 1-.214.109zm-62.605-.64a.324.324 0 0 1-.272-.197.317.317 0 0 1 .051-.328 53.5 53.5 0 0 1 1.299-1.031c.441-.34.85-.64 1.298-.954a.328.328 0 0 1 .455.07.318.318 0 0 1-.072.448c-.433.308-.865.622-1.298.942-.435.333-.857.64-1.299 1.018a.341.341 0 0 1-.162.045v-.013zm57.444-3.246a.348.348 0 0 1-.175-.052 47.928 47.928 0 0 0-2.746-1.658.31.31 0 0 1-.123-.435.322.322 0 0 1 .441-.122 49.225 49.225 0 0 1 2.785 1.678c.149.1.19.299.091.448a.339.339 0 0 1-.273.153v-.012zm-52.199-.48a.32.32 0 0 1-.175-.59c.922-.57 1.87-1.12 2.824-1.626a.333.333 0 0 1 .441.128.316.316 0 0 1-.136.436c-.935.499-1.876 1.037-2.778 1.607a.341.341 0 0 1-.176.044zM208.9 5.3a.27.27 0 0 1-.136-.032 50.548 50.548 0 0 0-2.954-1.28.318.318 0 1 1-.081-.55.329.329 0 0 1 .321-.046c1.007.397 2.013.833 2.993 1.28a.316.316 0 0 1 .15.429.312.312 0 0 1-.293.167v.032zm-40.852-.416a.318.318 0 0 1-.292-.186.316.316 0 0 1 .156-.428 51.341 51.341 0 0 1 3.019-1.236.329.329 0 0 1 .422.185.332.332 0 0 1-.195.417c-1 .371-2 .78-2.973 1.216a.355.355 0 0 1-.137 0v.032zm34.834-1.953h-.103c-1.02-.32-2.058-.64-3.097-.87a.333.333 0 0 1-.24-.23.327.327 0 0 1 .08-.32.338.338 0 0 1 .322-.09c1.045.255 2.104.556 3.136.883a.32.32 0 0 1 .208.403.318.318 0 0 1-.306.192v.032zm-28.764-.3a.33.33 0 0 1-.311-.231.316.316 0 0 1 .027-.244.324.324 0 0 1 .193-.153 49.652 49.652 0 0 1 3.155-.826c.18-.04.358.07.4.247a.328.328 0 0 1-.25.393 47.28 47.28 0 0 0-3.116.807.263.263 0 0 1-.098-.026v.032zm22.474-1.281h-.058a48.928 48.928 0 0 0-3.188-.455.326.326 0 0 1-.219-.12.317.317 0 0 1-.066-.238.33.33 0 0 1 .357-.282c1.077.122 2.161.275 3.245.467.18.016.312.173.296.35a.325.325 0 0 1-.354.29l-.013-.012zm-16.151-.173a.327.327 0 0 1-.294-.138.317.317 0 0 1-.026-.32.326.326 0 0 1 .268-.182 46.75 46.75 0 0 1 3.246-.397.323.323 0 0 1 .35.288.31.31 0 0 1-.072.234.32.32 0 0 1-.22.112c-1.064.096-2.142.23-3.2.39l-.052.013zm9.705-.538a34.296 34.296 0 0 0-3.246 0 .355.355 0 0 1-.337-.313.318.318 0 0 1 .09-.229.327.327 0 0 1 .228-.098h3.245c.18 0 .325.143.325.32 0 .177-.145.32-.325.32h.02z"/>
        <path fill="#FFF" d="M237.242 44.1c-.19 0-.35-.103-.365-.237-.05-.429-.11-.852-.175-1.275-.014-.092.042-.183.148-.238a.496.496 0 0 1 .364-.028c.12.037.203.117.217.21.066.428.124.856.168 1.29.008.068-.023.136-.086.188a.43.43 0 0 1-.25.09h-.021z"/>
        <path fill="url(#l)" d="M330.277 395.492c-.157-1.894-2.11-3.529-5.41-4.846 3.59-1.946 5.574-4.06 5.41-6.123-.51-6.24-20.457-9.73-44.544-7.784-24.087 1.946-43.234 8.543-42.723 14.776.157 1.894 2.11 3.53 5.41 4.846-3.589 1.946-5.574 4.06-5.41 6.123.157 1.894 2.11 3.529 5.41 4.84-3.589 1.945-5.574 4.066-5.41 6.129.157 1.888 2.11 3.529 5.41 4.839-3.589 1.946-5.574 4.06-5.41 6.123.23 2.764 4.258 4.982 10.77 6.435a54.47 54.47 0 0 0 .163 6.74c.943 11.494 13.999 20.51 31.266 20.51 17.267 0 32.216-12.324 32.386-23.819a57.357 57.357 0 0 0-.34-7.524c8.266-2.73 13.297-6.072 13.035-9.308-.157-1.894-2.11-3.529-5.41-4.846 3.59-1.946 5.574-4.06 5.41-6.123-.157-1.888-2.11-3.529-5.41-4.84 3.576-1.99 5.56-4.092 5.397-6.148z"/>
        <path fill="url(#m)" d="M274.077 432.894c-6.339.07-12.67-.452-18.913-1.558a.574.574 0 0 1 .214-1.128c8.374 1.61 19.567 1.956 31.506.997a134.18 134.18 0 0 0 26.425-4.563.574.574 0 0 1 .599.106.582.582 0 0 1-.275 1.002 135.992 135.992 0 0 1-26.658 4.622c-4.434.346-8.776.522-12.898.522z"/>
        <path fill="url(#n)" d="M274.824 423c-9.236 0-17.489-.928-23.31-2.694a.573.573 0 0 1-.344-.29.637.637 0 0 1-.046-.465.605.605 0 0 1 .272-.368.542.542 0 0 1 .437-.054c8.292 2.514 21.644 3.296 35.718 2.077 13.925-1.198 26.906-4.203 34.737-8.047a.534.534 0 0 1 .44-.022c.143.056.258.171.32.32a.634.634 0 0 1-.279.81c-7.947 3.9-21.072 6.925-35.12 8.158-4.39.388-8.708.575-12.825.575z"/>
        <path fill="url(#o)" d="M274.366 411.3c-10.027 0-18.812-1.088-24.722-3.147a.63.63 0 0 1-.314-.758.579.579 0 0 1 .68-.407c8.221 2.87 22.164 3.813 37.31 2.524 14.015-1.2 27.08-4.208 34.96-8.055a.564.564 0 0 1 .767.298.627.627 0 0 1-.282.81c-7.999 3.91-21.208 6.933-35.346 8.167-4.504.38-8.89.568-13.053.568z"/>
        <path fill="url(#p)" d="M274.67 400.5c-7.809 0-14.91-.698-20.426-2.023a.586.586 0 0 1-.418-.414.654.654 0 0 1 .122-.6.538.538 0 0 1 .54-.185c8.302 2.001 20.252 2.524 32.792 1.395 13.626-1.193 26.379-4.185 34.116-8.015a.518.518 0 0 1 .436-.02.582.582 0 0 1 .315.327c.064.148.07.317.018.47a.597.597 0 0 1-.294.346c-7.878 3.906-20.72 6.947-34.5 8.154-4.341.377-8.618.565-12.702.565z"/>
        <path fill="url(#q)" d="M226.875 339.019a81.258 81.258 0 0 0-14.482-28.345c-14.236-17.985-37.46-54.567-40.301-104.487-4.16-72.623 60.087-108.977 118.712-104.044 58.625 4.933 116.456 48.695 110.119 116.255-3.9 41.567-27.106 73.099-44.383 91.227a96.293 96.293 0 0 0-23.037 40.921c-5.2 18.767-17.55 42.16-46.86 43.587-37.96 1.818-53.723-33.65-59.768-55.114z"/>
        <path fill="url(#r)" d="M297.05 379.433l20.502-134.005c.422-2.769 1.78-4.63 3.027-4.154 1.248.477 1.917 3.102 1.494 5.878 0 .078 0 .17-.039.242l-23.348 132.758c-.182.992-.65 1.626-1.13 1.404-.48-.222-.65-1.156-.507-2.123z"/>
        <path fill="url(#s)" d="M275.347 382.127l-20.488-134c-.422-2.768-1.78-4.63-3.026-4.153-1.247.477-1.948 3.102-1.494 5.876 0 .079 0 .17.04.242l23.338 132.76c.176.992.65 1.626 1.13 1.404.48-.222.65-1.162.5-2.129z"/>
        <path fill="#FFF" d="M317.481 235.124a2.124 2.124 0 0 0-2.686-.714l-11.401 5.428-3.958-11.49a2.45 2.45 0 0 0-1.39-1.422 2.788 2.788 0 0 0-3.503 1.104l-9.429 17.454-8.701-24.8v-.04a2.834 2.834 0 0 0-1.298-1.513 3.377 3.377 0 0 0-4.309.866L257.7 238.383a1.637 1.637 0 0 0-.268 1.263c.088.44.352.824.728 1.058a2.17 2.17 0 0 0 2.79-.311l11.544-13.117 10.383 23.59c.186.407.51.731.915.912.955.473 2.107.17 2.719-.714l10.025-16.396 3.777 8.29.032.073c.027.062.06.122.097.178a2.111 2.111 0 0 0 2.687.708l13.53-6.44c.442-.168.79-.527.949-.981a1.66 1.66 0 0 0-.126-1.372zM356.482 291.6a.983.983 0 0 1-.582-.19.919.919 0 0 1-.21-1.321 149.05 149.05 0 0 0 9.678-14.214 1 1 0 0 1 1.34-.348c.47.262.631.842.36 1.296a150.002 150.002 0 0 1-9.808 14.391.972.972 0 0 1-.778.386zM374.41 261.9a.89.89 0 0 1-.361-.078.944.944 0 0 1-.487-.543 1.047 1.047 0 0 1 .018-.756c20.3-50.535 2.752-93.062 2.572-93.485-.16-.319-.143-.708.045-1.01a.877.877 0 0 1 .85-.422c.334.042.619.281.739.62.192.442 4.614 11.042 6.56 28.103 2.538 22.801-.606 45.92-9.108 66.967-.138.364-.465.602-.829.604z"/>
        <path fill="url(#t)" d="M145.8 351h18.9v96.3h-18.9z"/>
        <path fill="url(#u)" d="M174.554 451.084c0 .227.138.415-.126.421l-40.51.295a1.587 1.587 0 0 1-1.15-.474 1.631 1.631 0 0 1-.468-1.165v-2.054c.062-.474.297-.907.66-1.211a1.906 1.906 0 0 1 1.32-.496l40.148.703c.264 0 .145.187.145.408l-.02 3.573z"/>
        <path fill="url(#v)" d="M267.087 316.82l-152.1 1.885a2.806 2.806 0 0 0-2.247 1.431l-41.475 81.606c-.402.797-.045 1.445.8 1.451l151.878.907c.99-.05 1.882-.61 2.357-1.477l41.696-84.326a.918.918 0 0 0 .068-1.058.923.923 0 0 0-.977-.419z"/>
        <path fill="url(#w)" d="M156.504 323.1l-41.836.469a2.86 2.86 0 0 0-2.271 1.464l-9.634 19.129c-.4.798-.04 1.445.814 1.438l41.81-.27a2.873 2.873 0 0 0 2.31-1.478l9.627-19.314c.427-.805.046-1.451-.82-1.438z"/>
        <path fill="url(#x)" d="M205.98 322.2l-41.978.496c-.951.073-1.804.645-2.27 1.522l-9.479 19.887c-.393.83 0 1.502.832 1.495l41.965-.285c.966-.065 1.833-.644 2.302-1.536l9.498-20.077c.387-.836 0-1.509-.87-1.502z"/>
        <path fill="url(#y)" d="M258.107 322.216l-43.488.497c-.98.07-1.858.644-2.335 1.525l-9.626 19.864c-.406.833 0 1.505.876 1.498l43.476-.289a2.917 2.917 0 0 0 2.367-1.531l9.64-20.066a.968.968 0 0 0 .043-1.068.913.913 0 0 0-.953-.43z"/>
        <path fill="url(#z)" d="M144.794 348.3l-41.78.24a2.844 2.844 0 0 0-2.276 1.473l-9.675 19.32c-.4.81-.04 1.467.813 1.467l41.768-.04a2.837 2.837 0 0 0 2.302-1.48l9.7-19.512c.394-.817 0-1.468-.852-1.468z"/>
        <path fill="url(#A)" d="M194.295 348.3l-41.948.243a2.82 2.82 0 0 0-2.27 1.466l-9.52 19.326c-.4.808 0 1.465.824 1.465l41.903-.04a2.826 2.826 0 0 0 2.308-1.485l9.534-19.51c.426-.814.04-1.472-.831-1.465z"/>
        <path fill="url(#B)" d="M245.531 347.409l-43.462.257a2.861 2.861 0 0 0-2.34 1.502l-9.671 20.11c-.405.839 0 1.522.87 1.522l43.448-.04a2.889 2.889 0 0 0 2.374-1.543l9.69-20.3c.207-.318.214-.732.017-1.058a.93.93 0 0 0-.926-.45z"/>
        <path fill="url(#C)" d="M131.303 375.3H89.548a2.824 2.824 0 0 0-2.276 1.464l-9.71 19.367c-.394.808-.047 1.47.806 1.47l41.729.199a2.837 2.837 0 0 0 2.315-1.47l9.724-19.546c.406-.822.032-1.484-.833-1.484z"/>
        <path fill="url(#D)" d="M179.89 375.3h-41.876a2.799 2.799 0 0 0-2.275 1.468l-9.58 19.355c-.406.812 0 1.474.818 1.474l41.877.203a2.799 2.799 0 0 0 2.3-1.474l9.58-19.545c.413-.82.026-1.481-.843-1.481z"/>
        <path fill="url(#E)" d="M232.015 375.31h-43.652a2.885 2.885 0 0 0-2.352 1.523L175.5 398.484l45.249.216a2.897 2.897 0 0 0 2.39-1.53l9.776-20.323a.991.991 0 0 0 .05-1.076.938.938 0 0 0-.95-.46z"/>
        <path fill="#FFF" d="M221.497 400.5l-29.472-.154a.324.324 0 0 1-.325-.322c0-.178.146-.322.325-.322l29.472.154c.71 0 1.504-.81 1.888-1.583l15.403-30.898a.318.318 0 0 1 .429-.141.319.319 0 0 1 .15.431l-15.403 30.897c-.462.934-1.438 1.938-2.467 1.938zM101.127 347.4a.336.336 0 0 1-.293-.486l13.155-26.551c.455-.925 1.716-1.33 2.698-1.37l32.388-.393c.18 0 .325.149.325.333a.329.329 0 0 1-.325.332l-32.381.432c-.794 0-1.808.366-2.127 1.005l-13.154 26.512a.312.312 0 0 1-.286.186z"/>
        <path fill="url(#F)" d="M497.7 409.5h4.5v44.1h-4.5z"/>
        <path fill="url(#G)" d="M484.163 450.9h30.674c1.47 0 2.663 1.612 2.663 3.6h-36c0-1.988 1.192-3.6 2.663-3.6z"/>
        <rect width="45" height="13.5" x="478.8" y="398.7" fill="url(#H)" rx="3.917"/>
        <path fill="url(#I)" d="M469.256 379.8a36.543 36.543 0 0 0-13.196 5.535 3.41 3.41 0 0 0-1.538 3.248c.838 6.496 4.27 27.589 15.591 48.175a5.126 5.126 0 0 1 .508 3.56l-1.979 9.01-3.649 3.372h9.396l6.255-16.67-2.64-.83c-2.075-.648-3.499-2.528-3.536-4.671l-.317-17.878c.27-7.97-4.961-13.466-4.961-13.466l15.01-.715-14.944-18.67z"/>
        <path fill="url(#J)" d="M461.75 453.104c-.83 1.06 8.936 2.456 13.826.137 0 0 6.824-11.583 6.824-17.556 0 0-.543-1.247-4.545-.935 0 0-2.292 13.716-4.71 15.256-2.42 1.54-6.767.155-6.767.155s-3.41 1.384-4.628 2.943z"/>
        <path fill="url(#K)" d="M482.4 398.893c-.078-.135-16.02-1.894-16.02-1.894.24 3.828-.133 7.67-1.106 11.382-1.596 6.596-25.035 35.188-25.035 35.188l2.453 7.69a39.93 39.93 0 0 1-22.392 1.332l15.21-9.022s14.227-47.948 22.948-56.504l15.974-5.465 7.968 17.293z"/>
        <path fill="url(#L)" d="M517.518 370.8s9.008 13.772 9.774 20.05c.766 6.28-2.47 8.839-11.95 9.234-9.478.396-34.747.416-34.747.416L459 381.584s15.733-5.758 19.825-7.38c4.093-1.623 38.693-3.404 38.693-3.404z"/>
        <path fill="url(#M)" d="M442.198 449.1s2.682 2.632.878 5.567c0 0-21.456 3.817-27.276 2.08 0 0 1.207-2.767 7.764-5.924l-.482.39a.79.79 0 0 0 .516 1.408c4.325-.263 13.27-1.057 18.6-3.521z"/>
        <path fill="url(#N)" d="M493.274 369s-10.66-10.172-15.958-16.916a14.322 14.322 0 0 1-2.42-12.88c2.4-8.099 6.671-16.485 7.063-17.787.596-2.002 12.584-1.916 12.584-1.916s23.59 15.313 32.857 41.25l-10.405 3.27s-6.161-10.335-12.25-16.902c0 0 10.53 13.913 10.902 19.624L493.274 369z"/>
        <path fill="url(#O)" d="M481.5 309.506c.124.436 3.275 11.392 3.504 11.62.23.228 6.872.6 9.996-1.644l-5.293-11.682-8.207 1.706z"/>
        <path fill="url(#P)" d="M485.265 288.336s-5.475 2.374-9.195 10.506c-3.72 8.132-.945 11.867 2.535 12.361 3.479.494 8.714.436 14.234-4.814s-.456-20.864-7.574-18.053z"/>
        <path fill="url(#Q)" d="M489.603 303.287s4.228-12.051-6.27-12.19l-2.471 1.756s-3.852-6.68 2.47-9.9a13.235 13.235 0 0 1 11.07-.079c3.531 1.593 6.218 4.653 7.379 8.401 2.69 8.666 1.115 14.262-3.36 18.414-4.474 4.15-6.322-.555-6.322-.555s2.438-3.88 1.446-5.94c-.992-2.059-3.28.43-3.28.43l-.662-.337z"/>
        <path fill="url(#R)" d="M490.5 303.542s2.315-6.817 5.394-4.104c3.08 2.712-2.504 6.302-4.693 7.462l-.701-3.358z"/>
        <path fill="url(#S)" d="M496.8 289.018s18.99-8.893 25.071 11.619c6.081 20.512 9.193 26.927 13.629 22.637 0 0 .231 7.948-9.643 5.738-25.74-5.738-14.715-36.864-29.057-39.994z"/>
        <path fill="url(#T)" d="M529.873 367.345l-2.171-6.445-13.822 4.523-6.113 1.74c-6.12 1.738-16.801 0-16.801 0l-7.16-3.18c-.323-.23-4.685-3.83-7.69-1.99-3.005 1.841-12.497 9.51-9.247 9.373a33.665 33.665 0 0 0 6.12-.876c.867.422 1.756.794 2.662 1.114a8.73 8.73 0 0 0 2.662.618c1.855 0 6.178.68 6.178.68l3.496.896.71.183.059-.163c12.652.367 34.991.917 36.303.313a24.014 24.014 0 0 0 3.483-2.283c1.36-1.012 1.906-2.858 1.331-4.503z"/>
        <path fill="url(#U)" d="M501.124 374.4h-.104l-45.278-.057c-.75.047-1.463-.366-1.85-1.072a2.408 2.408 0 0 1 0-2.295c.387-.707 1.1-1.12 1.85-1.072l45.278.05c.724-.02 1.403.384 1.782 1.062a2.41 2.41 0 0 1 .052 2.223c-.346.698-1.006 1.14-1.73 1.161z"/>
        <path fill="url(#V)" d="M416.098 332.1h37.253a7.105 7.105 0 0 1 6.423 4.062L477 372.6h-46.31a4.316 4.316 0 0 1-4.014-2.723l-13.366-33.715a2.96 2.96 0 0 1 .31-2.771 2.976 2.976 0 0 1 2.478-1.291z"/>
        <path fill="url(#W)" d="M440.64 351.385c.807 2.683.211 5.283-1.328 5.819-1.539.535-3.444-1.215-4.251-3.898-.808-2.683-.212-5.283 1.327-5.812 1.539-.528 3.444 1.215 4.251 3.891z"/>
        <path fill="#FFF" d="M383.28 461.7a1.721 1.721 0 0 1-.661-.137 1.707 1.707 0 0 1-.878-2.237l35.325-83c.169-.412.5-.738.916-.905.417-.167.884-.16 1.296.018a1.714 1.714 0 0 1 .884 2.237l-35.331 82.993a1.69 1.69 0 0 1-1.552 1.031z"/>
        <path fill="#FFF" d="M424.008 462.6a1.67 1.67 0 0 1-1.545-1.04L387.14 377.7a1.73 1.73 0 0 1 .878-2.26 1.667 1.667 0 0 1 2.212.896l35.328 83.84a1.73 1.73 0 0 1-.878 2.26c-.21.1-.44.156-.673.164zM521.88 461.7a1.722 1.722 0 0 1-.66-.137 1.72 1.72 0 0 1-.884-2.237l35.326-83.002c.172-.41.504-.736.921-.903a1.696 1.696 0 0 1 1.298.016c.86.386 1.25 1.38.878 2.238l-35.333 82.994a1.67 1.67 0 0 1-1.545 1.031z"/>
        <path fill="#FFF" d="M560.816 462.6a1.69 1.69 0 0 1-1.552-1.04l-35.326-83.862a1.737 1.737 0 0 1 .884-2.26 1.674 1.674 0 0 1 2.212.896l35.326 83.842a1.73 1.73 0 0 1-.884 2.26c-.207.099-.431.155-.66.164z"/>
        <path fill="#FFF" d="M563.368 374.799a1.824 1.824 0 0 0-.394-1.518 1.895 1.895 0 0 0-1.434-.681H373.838a2.15 2.15 0 0 0-1.801.974 2.137 2.137 0 0 0-.143 2.042l2.034 4.35c.5 1.014 1.498 1.646 2.583 1.633h183.738c1.005.025 1.889-.697 2.118-1.729l1-5.071z"/>
        <path fill="url(#X)" d="M393.184 169.923a36.813 36.813 0 0 0-20.093-8.823l-3.191 1.955a34.813 34.813 0 0 0 5.758 6.19c3.387 1.988 8.699 4.69 13.075 5.273 4.254.577 4.884-1.995 4.45-4.595z"/>
        <path fill="url(#Y)" d="M394.605 173.313a31.623 31.623 0 0 0-2.898-2.642c.405 2.234-.184 4.444-4.167 3.96-4.097-.502-9.044-2.822-12.24-4.531 4.008 3.149 10.115 6.484 17.82 6.292.785-.016 1.489-.447 1.806-1.106a1.744 1.744 0 0 0-.321-1.973z"/>
        <path fill="url(#Z)" d="M351.45 112.5s-4.41.232-4.95 9.323c0 0 10.229 9.188 24.05 11.374 1.035.168-1.45-7.092-1.83-8.079-1.776-4.674-7.382-7.686-17.27-12.618z"/>
        <path fill="url(#aa)" d="M368.653 126.058c-2.394.76-3.446 4.08-9.53 1.884a54.036 54.036 0 0 1-12.501-6.442c-.051.427-.096.873-.122 1.35 0 0 10.756 10.007 24.527 12.136.483.069.966-.117 1.271-.489a1.32 1.32 0 0 0 .212-1.32 33.58 33.58 0 0 0-3.857-7.119z"/>
        <path fill="url(#ab)" d="M301.455 102.16h9.432s28.952-31.45 47.939-34.66c0 0 13.22 16.604-.698 47.63a4.584 4.584 0 0 1-2.804 2.542 4.677 4.677 0 0 1-3.79-.404 3.725 3.725 0 0 1-1.5-1.771l1.115-26.489s-24.694 21.258-28.985 25.359c-4.292 4.101-26.116 1.624-20.709-12.208z"/>
        <path fill="url(#ac)" d="M375.253 162.01c-4.55-31.248-29.701-51.742-29.701-51.742l-44.029-.468-5.922 2.35-1.95-1.556-11.051 6.731s14.236 15.218 29.552 7.974c6.058-1.742 24.17-5.124 34.187 12.322 9.913 17.293 25.112 27.079 25.112 27.079 4.556-.39 3.802-2.69 3.802-2.69z"/>
        <path fill="url(#ad)" d="M302.215 73.8s4.828 23.813 28.48 33.237l8.418-.971 1.987 3.115-19.744.619c-11.196-5.03-20.31-13.673-25.83-24.497-.252-.6-5.18-10.604 6.69-11.503z"/>
        <path fill="url(#ae)" d="M305.256 109.622s-5.492-14.539-6.67-28.665a63.588 63.588 0 0 1 6.525-4.812 1.744 1.744 0 0 0 .708-2.29c-1.846-3.728-12.996-18.35-13.837-18.55-4.539-1.11-23.16-9.74-36.281 7.74-5.632 7.502.714 31.303 26.256 55.226l3.097 2.329 20.202-10.978z"/>
        <path fill="url(#af)" d="M284.27 83.7s14.942 17.097 34.092 19.59c0 0 4.944-4.342 8.62-2.794 3.677 1.548 8.718 8.404 8.718 8.404h-24.568s-23.224-.783-34.832-14.377c.935-4.75 3.729-7.595 7.97-10.823z"/>
        <path fill="url(#ag)" d="M275.932 42.3l-3.188 11.036a1.22 1.22 0 0 0 .459 1.313c1.543 1.096 5.593 3.282 11.141 1.155.631-.25 1.067-.85 1.123-1.543l.733-9.591-10.268-2.37z"/>
        <path fill="url(#ah)" d="M333.9 111.338l11.346-37.383a3.843 3.843 0 0 1 3.438-2.713l15.297-1.037a2.179 2.179 0 0 1 1.876.84c.442.575.562 1.331.32 2.012l-12.681 35.7a3.17 3.17 0 0 1-2.67 2.086L335.73 112.5l-1.829-1.162z"/>
        <path fill="url(#ai)" d="M354.935 86.791c-.818 1.676-2.24 2.659-3.176 2.194-.935-.465-1.013-2.2-.195-3.876.819-1.676 2.248-2.659 3.177-2.194.928.465 1.02 2.2.194 3.876z"/>
        <path fill="url(#aj)" d="M336.146 112.493h-.072l-31.436-1.621a1.405 1.405 0 0 1-1.182-.779 1.463 1.463 0 0 1 .068-1.435c.272-.431.75-.681 1.251-.656l31.436 1.622c.742.066 1.306.709 1.289 1.47a1.428 1.428 0 0 1-1.354 1.406v-.007z"/>
        <path fill="url(#ak)" d="M298.474 80.1c-.181-.003-.325-.125-.325-.275 0-6.245-2.904-14.596-2.934-14.677a.227.227 0 0 1 .024-.207.32.32 0 0 1 .195-.13c.173-.041.354.04.408.18 0 .088 3.025 8.489 2.957 14.84 0 .149-.146.269-.325.269z"/>
        <path fill="url(#al)" d="M284.126 82.8a.277.277 0 0 1-.224-.098c-.08-.08-7.013-8.297-9.382-13.939a.25.25 0 0 1 .04-.262.294.294 0 0 1 .264-.098.28.28 0 0 1 .223.163c2.355 5.532 9.21 13.724 9.296 13.81a.258.258 0 0 1-.046.369.317.317 0 0 1-.171.055z"/>
        <path fill="url(#am)" d="M274.947 97.2l-.212-.088c-10.1-4.117-16.34-15.596-16.406-15.716a.272.272 0 0 1 .126-.366.298.298 0 0 1 .219-.017.282.282 0 0 1 .166.137c.06.113 6.12 11.264 15.915 15.374l1.028-1.376a.295.295 0 0 1 .398-.063.263.263 0 0 1 .066.379l-1.3 1.736z"/>
        <path fill="url(#an)" d="M297 25.38s-1.142 12.111-3.703 17.396c-2.56 5.284-3.282 9.222-9.847 6.983-6.565-2.239-9.946-7.933-9.848-14.533 0 0 .099-10.204 2.85-12.905C279.201 19.62 297 25.38 297 25.38z"/>
        <path fill="url(#ao)" d="M276.365 33.038l.419.039a.927.927 0 0 0 1.006-.866c.051-2.061.458-6.629 3.01-6.338 3.302.381 15.145 4.083 19.523 1.57 4.21-2.423 4.835-8.199 2.63-11.158a.464.464 0 0 0-.645-.123l-.502.33a.457.457 0 0 1-.697-.478.453.453 0 0 0-.644-.504c-1.329.743-4.25 1.531-9.865-.342-7.981-2.662-14.39-2.372-17.265 2.584a.458.458 0 0 1-.8 0c-.354-.646-1.128-1.247-2.798-.918-2.914.582-4.513 5.382-2.095 11.365a.46.46 0 0 1-.374.646c-1.07.077-2.927.646-.774 3.98 2.231 3.437 4.668 4.6 5.661 4.949a.45.45 0 0 0 .587-.304l1.45-4.943a.452.452 0 0 1 .645-.27l1.528.78z"/>
        <path fill="url(#ap)" d="M277.686 33.506s1.719-7.644-1.848-7.4c-3.566.243-2.267 8.338-.265 9.894l2.113-2.494z"/>
        <path fill="#FFF" d="M178.192 172.585c-1.416-10.197 12.038-24.559 36.471-11.806.658-4.829 31.23-19.794 45.492 11.834 2.405-7.66 24.636-3.779 28.668 9.184 8.341-3.184 28.475 12.906 1.895 15.63-33.938 3.477-111.73 2.324-125.717-15.24-13.987-17.564 13.191-9.602 13.191-9.602z" opacity=".702"/>
        <g opacity=".8">
            <path fill="url(#aq)" d="M.87 53.836S13.12 27.872 3.845.48a.239.239 0 0 0-.23-.114.23.23 0 0 0-.202.153C1.174 17.078.51 35.012.87 53.836z" transform="translate(543.6 315)"/>
            <path fill="#FFF" d="M548.124 322.497c.092 3.83.092 7.653.05 11.476-.043 3.823-.149 7.64-.333 11.47-.183 3.83-.466 7.64-.897 11.443a68.574 68.574 0 0 1-2.086 11.34.35.35 0 0 1-.256.239.388.388 0 0 1-.353-.084.317.317 0 0 1-.098-.324 67.854 67.854 0 0 0 2.164-11.23c.466-3.79.777-7.6.996-11.41.22-3.81.368-7.634.446-11.45.077-3.817.106-7.64.05-11.463 0-.076.066-.137.148-.137.082 0 .148.061.148.137l.021-.007z"/>
        </g>
        <path fill="url(#ar)" d="M542.536 364.5s7.432-32.144-6.62-64.668a.218.218 0 0 0-.243-.128.206.206 0 0 0-.173.206c.757 20.143 3.313 41.856 7.036 64.59z"/>
        <path fill="#FFF" d="M542.968 317.799a446.94 446.94 0 0 1 2.05 13.547c.623 4.537 1.19 9.055 1.683 13.599.492 4.543.902 9.087 1.155 13.644a96.647 96.647 0 0 1 0 13.714.343.343 0 0 1-.369.296.35.35 0 0 1-.234-.112.31.31 0 0 1-.08-.235c.36-4.534.399-9.086.116-13.625-.219-4.55-.588-9.1-1.046-13.637a433.189 433.189 0 0 0-1.587-13.593 534.823 534.823 0 0 0-1.955-13.553.13.13 0 0 1 .11-.142c.07-.012.14.03.157.097z"/>
        <path fill="url(#as)" d="M541.533 373.5s3.243-27.906-12.864-53.018c-.101-.162-.398-.065-.367.124 2.839 16.705 7.453 34.457 13.23 52.894z"/>
        <path fill="#FFF" d="M535.822 336.708c1.19 3.782 2.309 7.578 3.384 11.386a352.035 352.035 0 0 1 3.045 11.493c.946 3.848 1.829 7.723 2.558 11.625a78.053 78.053 0 0 1 1.49 11.85.331.331 0 0 1-.084.236.315.315 0 0 1-.452.015.336.336 0 0 1-.103-.231 77.772 77.772 0 0 0-1.4-11.758c-.704-3.888-1.549-7.763-2.476-11.611a372.856 372.856 0 0 0-2.969-11.493 386.058 386.058 0 0 0-3.307-11.4.169.169 0 0 1 .103-.211.16.16 0 0 1 .204.106l.007-.007z"/>
        <path fill="url(#at)" d="M534.638 357.3h15.483c.481 0 .936.205 1.236.558.3.353.41.815.303 1.255-.993 4.027-2.183 8.11-4.603 12.254-.448.764-1.305 1.237-2.235 1.233h-5.056c-.917-.001-1.758-.475-2.19-1.233a40.332 40.332 0 0 1-4.746-12.026 1.656 1.656 0 0 1 .396-1.416 1.898 1.898 0 0 1 1.412-.625z"/>
    </g>
</svg>
